<svg width="40" height="41" viewBox="0 0 40 41" fill="none" xmlns="http://www.w3.org/2000/svg">
<path d="M36.4535 2.26465H3.55039C2.42338 2.26465 1.50977 3.17827 1.50977 4.30527V37.2084C1.50977 38.3354 2.42338 39.249 3.55039 39.249H36.4535C37.5805 39.249 38.4941 38.3354 38.4941 37.2084V4.30527C38.4941 3.17827 37.5805 2.26465 36.4535 2.26465Z" fill="#3D5A98"/>
<path d="M27.0246 39.2451V24.9232H31.8309L32.5496 19.342H27.0246V15.7795C27.0246 14.1638 27.4746 13.0607 29.7902 13.0607H32.7465V8.06071C31.315 7.91152 29.8764 7.84058 28.4371 7.84821C24.1809 7.84821 21.2496 10.442 21.2496 15.2263V19.342H16.4434V24.9232H21.2496V39.2451H27.0246Z" fill="white"/>
</svg>
