<svg width="216" height="88" viewBox="0 0 216 88" fill="none" xmlns="http://www.w3.org/2000/svg">
<path d="M16.192 28.776V11.176H39.424C44.968 11.176 44.968 3.784 44.968 3.784H6.6V61.864C6.6 66.88 16.192 66.88 16.192 66.88V36.168H33.264C39.6 36.168 40.568 31.24 40.568 27.632C40.568 27.632 37.752 28.776 31.856 28.776H16.192ZM67.1275 27.896C72.2315 27.896 76.5435 30.272 76.5435 35.464C77.7755 33.792 79.7995 31.24 79.7995 27.984C79.7995 22.616 74.8715 20.328 68.7115 20.328C63.6955 20.328 60.2635 22.176 56.4795 22.176C54.7195 22.176 52.6955 21.736 50.4075 20.592V61.512C50.4075 66.616 59.6475 66.616 59.6475 66.616V29.128C59.6475 29.128 63.3435 27.896 67.1275 27.896ZM96.4886 60.456C89.9766 65.12 84.2566 70.136 84.2566 78.056C84.2566 85.272 88.5686 87.384 91.9126 87.384C93.2326 87.384 94.3766 86.944 95.2566 86.504C94.1126 84.216 93.3206 81.488 93.3206 78.672C93.3206 72.688 97.7206 69.08 103.529 64.592L106.961 61.952C112.153 57.904 119.105 49.632 120.425 38.016C121.041 32.296 121.569 26.488 122.273 20.768C120.865 20.768 113.385 20.856 112.417 28.424L110.921 39.776C109.689 50.248 102.121 55.704 102.121 55.704C102.121 55.704 94.8166 50.512 93.4086 39.776C92.7926 34.936 92.3526 28.512 90.8566 24.728C89.2726 20.768 81.9686 20.768 82.0566 20.768C82.7606 26.488 83.2886 32.296 83.9046 38.016C85.0486 48.84 91.2966 57.64 96.4886 60.456ZM130.072 52.272C130.072 61.6 136.408 67.056 146.88 67.056C155.768 67.056 161.928 63.272 161.928 57.552C161.928 55.264 160.872 52.976 158.848 50.424C158.848 56.936 153.656 59.664 148.024 59.664C141.248 59.664 139.312 55.88 139.312 49.808V30.448H151.984C157.352 30.448 157.44 23.056 157.44 23.056H139.312V19.712C139.312 12.056 132.096 11.88 130.072 11.88V52.272Z" fill="#076585"/>
<path d="M215.008 3.872C215.008 3.872 212.896 3.344 211.048 3.344C208.232 3.344 204.536 4.136 202.072 8.712C197.144 17.952 193.712 24.728 189.136 29.568C184.56 24.728 181.04 17.952 176.2 8.712C173.736 4.136 170.04 3.344 167.224 3.344C165.376 3.344 163.264 3.872 163.264 3.872C168.72 12.232 173.472 25.344 182.448 35.2C173.472 44.176 168.72 57.816 163.176 66.352C163.176 66.352 165.288 66.88 167.136 66.88C169.864 66.88 173.736 65.912 176.112 61.512C180.336 53.592 183.944 46.552 189.136 40.744C194.328 46.552 198.024 53.592 202.248 61.512C204.624 65.912 208.408 66.88 211.224 66.88C213.072 66.88 215.184 66.352 215.184 66.352C209.64 57.816 204.8 44.176 195.912 35.2C204.8 25.344 209.552 12.232 215.008 3.872Z" fill="#F7951D"/>
<path d="M109.112 78.692C109.416 78.74 109.692 78.864 109.94 79.064C110.196 79.264 110.396 79.512 110.54 79.808C110.692 80.104 110.768 80.42 110.768 80.756C110.768 81.18 110.66 81.564 110.444 81.908C110.228 82.244 109.912 82.512 109.496 82.712C109.088 82.904 108.604 83 108.044 83H104.924V74.636H107.924C108.492 74.636 108.976 74.732 109.376 74.924C109.776 75.108 110.076 75.36 110.276 75.68C110.476 76 110.576 76.36 110.576 76.76C110.576 77.256 110.44 77.668 110.168 77.996C109.904 78.316 109.552 78.548 109.112 78.692ZM106.016 78.248H107.852C108.364 78.248 108.76 78.128 109.04 77.888C109.32 77.648 109.46 77.316 109.46 76.892C109.46 76.468 109.32 76.136 109.04 75.896C108.76 75.656 108.356 75.536 107.828 75.536H106.016V78.248ZM107.948 82.1C108.492 82.1 108.916 81.972 109.22 81.716C109.524 81.46 109.676 81.104 109.676 80.648C109.676 80.184 109.516 79.82 109.196 79.556C108.876 79.284 108.448 79.148 107.912 79.148H106.016V82.1H107.948ZM120.115 76.424V83H119.023V82.028C118.815 82.364 118.523 82.628 118.147 82.82C117.779 83.004 117.371 83.096 116.923 83.096C116.411 83.096 115.951 82.992 115.543 82.784C115.135 82.568 114.811 82.248 114.571 81.824C114.339 81.4 114.223 80.884 114.223 80.276V76.424H115.303V80.132C115.303 80.78 115.467 81.28 115.795 81.632C116.123 81.976 116.571 82.148 117.139 82.148C117.723 82.148 118.183 81.968 118.519 81.608C118.855 81.248 119.023 80.724 119.023 80.036V76.424H120.115ZM124.523 75.356C124.315 75.356 124.139 75.284 123.995 75.14C123.851 74.996 123.779 74.82 123.779 74.612C123.779 74.404 123.851 74.228 123.995 74.084C124.139 73.94 124.315 73.868 124.523 73.868C124.723 73.868 124.891 73.94 125.027 74.084C125.171 74.228 125.243 74.404 125.243 74.612C125.243 74.82 125.171 74.996 125.027 75.14C124.891 75.284 124.723 75.356 124.523 75.356ZM125.051 76.424V83H123.959V76.424H125.051ZM130.004 74.12V83H128.912V74.12H130.004ZM133.457 79.688C133.457 79.016 133.593 78.428 133.865 77.924C134.137 77.412 134.509 77.016 134.981 76.736C135.461 76.456 135.997 76.316 136.589 76.316C137.101 76.316 137.577 76.436 138.017 76.676C138.457 76.908 138.793 77.216 139.025 77.6V74.12H140.129V83H139.025V81.764C138.809 82.156 138.489 82.48 138.065 82.736C137.641 82.984 137.145 83.108 136.577 83.108C135.993 83.108 135.461 82.964 134.981 82.676C134.509 82.388 134.137 81.984 133.865 81.464C133.593 80.944 133.457 80.352 133.457 79.688ZM139.025 79.7C139.025 79.204 138.925 78.772 138.725 78.404C138.525 78.036 138.253 77.756 137.909 77.564C137.573 77.364 137.201 77.264 136.793 77.264C136.385 77.264 136.013 77.36 135.677 77.552C135.341 77.744 135.073 78.024 134.873 78.392C134.673 78.76 134.573 79.192 134.573 79.688C134.573 80.192 134.673 80.632 134.873 81.008C135.073 81.376 135.341 81.66 135.677 81.86C136.013 82.052 136.385 82.148 136.793 82.148C137.201 82.148 137.573 82.052 137.909 81.86C138.253 81.66 138.525 81.376 138.725 81.008C138.925 80.632 139.025 80.196 139.025 79.7ZM144.539 75.356C144.331 75.356 144.155 75.284 144.011 75.14C143.867 74.996 143.795 74.82 143.795 74.612C143.795 74.404 143.867 74.228 144.011 74.084C144.155 73.94 144.331 73.868 144.539 73.868C144.739 73.868 144.907 73.94 145.043 74.084C145.187 74.228 145.259 74.404 145.259 74.612C145.259 74.82 145.187 74.996 145.043 75.14C144.907 75.284 144.739 75.356 144.539 75.356ZM145.067 76.424V83H143.975V76.424H145.067ZM152.132 76.304C152.932 76.304 153.58 76.548 154.076 77.036C154.572 77.516 154.82 78.212 154.82 79.124V83H153.74V79.28C153.74 78.624 153.576 78.124 153.248 77.78C152.92 77.428 152.472 77.252 151.904 77.252C151.328 77.252 150.868 77.432 150.524 77.792C150.188 78.152 150.02 78.676 150.02 79.364V83H148.928V76.424H150.02V77.36C150.236 77.024 150.528 76.764 150.896 76.58C151.272 76.396 151.684 76.304 152.132 76.304ZM161.316 76.316C161.884 76.316 162.38 76.44 162.804 76.688C163.236 76.936 163.556 77.248 163.764 77.624V76.424H164.868V83.144C164.868 83.744 164.74 84.276 164.484 84.74C164.228 85.212 163.86 85.58 163.38 85.844C162.908 86.108 162.356 86.24 161.724 86.24C160.86 86.24 160.14 86.036 159.564 85.628C158.988 85.22 158.648 84.664 158.544 83.96H159.624C159.744 84.36 159.992 84.68 160.368 84.92C160.744 85.168 161.196 85.292 161.724 85.292C162.324 85.292 162.812 85.104 163.188 84.728C163.572 84.352 163.764 83.824 163.764 83.144V81.764C163.548 82.148 163.228 82.468 162.804 82.724C162.38 82.98 161.884 83.108 161.316 83.108C160.732 83.108 160.2 82.964 159.72 82.676C159.248 82.388 158.876 81.984 158.604 81.464C158.332 80.944 158.196 80.352 158.196 79.688C158.196 79.016 158.332 78.428 158.604 77.924C158.876 77.412 159.248 77.016 159.72 76.736C160.2 76.456 160.732 76.316 161.316 76.316ZM163.764 79.7C163.764 79.204 163.664 78.772 163.464 78.404C163.264 78.036 162.992 77.756 162.648 77.564C162.312 77.364 161.94 77.264 161.532 77.264C161.124 77.264 160.752 77.36 160.416 77.552C160.08 77.744 159.812 78.024 159.612 78.392C159.412 78.76 159.312 79.192 159.312 79.688C159.312 80.192 159.412 80.632 159.612 81.008C159.812 81.376 160.08 81.66 160.416 81.86C160.752 82.052 161.124 82.148 161.532 82.148C161.94 82.148 162.312 82.052 162.648 81.86C162.992 81.66 163.264 81.376 163.464 81.008C163.664 80.632 163.764 80.196 163.764 79.7ZM179.06 74.636V75.524H176.78V83H175.688V75.524H173.396V74.636H179.06ZM183.496 77.492C183.688 77.116 183.96 76.824 184.312 76.616C184.672 76.408 185.108 76.304 185.62 76.304V77.432H185.332C184.108 77.432 183.496 78.096 183.496 79.424V83H182.404V76.424H183.496V77.492ZM194.713 76.424V83H193.621V82.028C193.413 82.364 193.121 82.628 192.745 82.82C192.377 83.004 191.969 83.096 191.521 83.096C191.009 83.096 190.549 82.992 190.141 82.784C189.733 82.568 189.409 82.248 189.169 81.824C188.937 81.4 188.821 80.884 188.821 80.276V76.424H189.901V80.132C189.901 80.78 190.065 81.28 190.393 81.632C190.721 81.976 191.169 82.148 191.737 82.148C192.321 82.148 192.781 81.968 193.117 81.608C193.453 81.248 193.621 80.724 193.621 80.036V76.424H194.713ZM200.885 83.108C200.381 83.108 199.929 83.024 199.529 82.856C199.129 82.68 198.813 82.44 198.581 82.136C198.349 81.824 198.221 81.468 198.197 81.068H199.325C199.357 81.396 199.509 81.664 199.781 81.872C200.061 82.08 200.425 82.184 200.873 82.184C201.289 82.184 201.617 82.092 201.857 81.908C202.097 81.724 202.217 81.492 202.217 81.212C202.217 80.924 202.089 80.712 201.833 80.576C201.577 80.432 201.181 80.292 200.645 80.156C200.157 80.028 199.757 79.9 199.445 79.772C199.141 79.636 198.877 79.44 198.653 79.184C198.437 78.92 198.329 78.576 198.329 78.152C198.329 77.816 198.429 77.508 198.629 77.228C198.829 76.948 199.113 76.728 199.481 76.568C199.849 76.4 200.269 76.316 200.741 76.316C201.469 76.316 202.057 76.5 202.505 76.868C202.953 77.236 203.193 77.74 203.225 78.38H202.133C202.109 78.036 201.969 77.76 201.713 77.552C201.465 77.344 201.129 77.24 200.705 77.24C200.313 77.24 200.001 77.324 199.769 77.492C199.537 77.66 199.421 77.88 199.421 78.152C199.421 78.368 199.489 78.548 199.625 78.692C199.769 78.828 199.945 78.94 200.153 79.028C200.369 79.108 200.665 79.2 201.041 79.304C201.513 79.432 201.897 79.56 202.193 79.688C202.489 79.808 202.741 79.992 202.949 80.24C203.165 80.488 203.277 80.812 203.285 81.212C203.285 81.572 203.185 81.896 202.985 82.184C202.785 82.472 202.501 82.7 202.133 82.868C201.773 83.028 201.357 83.108 200.885 83.108ZM208.158 77.324V81.2C208.158 81.52 208.226 81.748 208.362 81.884C208.498 82.012 208.734 82.076 209.07 82.076H209.874V83H208.89C208.282 83 207.826 82.86 207.522 82.58C207.218 82.3 207.066 81.84 207.066 81.2V77.324H206.214V76.424H207.066V74.768H208.158V76.424H209.874V77.324H208.158Z" fill="#076585"/>
</svg>
