<svg width="156" height="85" viewBox="0 0 156 85" fill="none" xmlns="http://www.w3.org/2000/svg">
<path d="M10.192 25.776V8.176H33.424C38.968 8.176 38.968 0.783998 38.968 0.783998H0.6V58.864C0.6 63.88 10.192 63.88 10.192 63.88V33.168H27.264C33.6 33.168 34.568 28.24 34.568 24.632C34.568 24.632 31.752 25.776 25.856 25.776H10.192ZM61.1275 24.896C66.2315 24.896 70.5435 27.272 70.5435 32.464C71.7755 30.792 73.7995 28.24 73.7995 24.984C73.7995 19.616 68.8715 17.328 62.7115 17.328C57.6955 17.328 54.2635 19.176 50.4795 19.176C48.7195 19.176 46.6955 18.736 44.4075 17.592V58.512C44.4075 63.616 53.6475 63.616 53.6475 63.616V26.128C53.6475 26.128 57.3435 24.896 61.1275 24.896ZM90.4886 57.456C83.9766 62.12 78.2566 67.136 78.2566 75.056C78.2566 82.272 82.5686 84.384 85.9126 84.384C87.2326 84.384 88.3766 83.944 89.2566 83.504C88.1126 81.216 87.3206 78.488 87.3206 75.672C87.3206 69.688 91.7206 66.08 97.5286 61.592L100.961 58.952C106.153 54.904 113.105 46.632 114.425 35.016C115.041 29.296 115.569 23.488 116.273 17.768C114.865 17.768 107.385 17.856 106.417 25.424L104.921 36.776C103.689 47.248 96.1206 52.704 96.1206 52.704C96.1206 52.704 88.8166 47.512 87.4086 36.776C86.7926 31.936 86.3526 25.512 84.8566 21.728C83.2726 17.768 75.9686 17.768 76.0566 17.768C76.7606 23.488 77.2886 29.296 77.9046 35.016C79.0486 45.84 85.2966 54.64 90.4886 57.456ZM124.072 49.272C124.072 58.6 130.408 64.056 140.88 64.056C149.768 64.056 155.928 60.272 155.928 54.552C155.928 52.264 154.872 49.976 152.848 47.424C152.848 53.936 147.656 56.664 142.024 56.664C135.248 56.664 133.312 52.88 133.312 46.808V27.448H145.984C151.352 27.448 151.44 20.056 151.44 20.056H133.312V16.712C133.312 9.056 126.096 8.88 124.072 8.88V49.272Z" fill="#076585"/>
</svg>
