<svg width="122" height="41" viewBox="0 0 122 41" fill="none" xmlns="http://www.w3.org/2000/svg">
<g clip-path="url(#clip0_2436_828)">
<path d="M30.381 14.9541H16.3238V19.1255H26.2953C25.8 24.9731 20.9334 27.4683 16.3429 27.4683C13.3876 27.4683 10.5534 26.2944 8.46369 24.2047C6.374 22.115 5.20002 19.2808 5.20002 16.3255C5.20002 13.3702 6.374 10.536 8.46369 8.44629C10.5534 6.3566 13.3876 5.18263 16.3429 5.18263C19.144 5.17827 21.8377 6.26051 23.8572 8.20167L26.781 5.1731C23.9569 2.44273 20.1658 0.942763 16.2381 1.00167C14.2258 1.01605 12.236 1.42666 10.3823 2.21004C8.52862 2.99342 6.8474 4.13424 5.43462 5.56736C4.02185 7.00048 2.90518 8.69783 2.14837 10.5625C1.39157 12.4272 1.00945 14.4227 1.02383 16.435C1.03821 18.4474 1.44882 20.4372 2.2322 22.2908C3.01558 24.1445 4.1564 25.8257 5.58951 27.2385C7.02263 28.6513 8.71998 29.7679 10.5847 30.5247C12.4493 31.2816 14.4448 31.6637 16.4572 31.6493C24.6572 31.6493 30.6667 26.0302 30.6667 17.716C30.6837 16.7886 30.5974 15.8623 30.4095 14.9541H30.381Z" fill="#4885ED"/>
<path d="M41.8954 11.9358C39.951 11.9433 38.0523 12.5263 36.4387 13.6113C34.8252 14.6962 33.5689 16.2346 32.8283 18.0324C32.0876 19.8303 31.8958 21.8072 32.277 23.7139C32.6582 25.6206 33.5953 27.3717 34.9702 28.7466C36.3452 30.1216 38.0963 31.0587 40.003 31.4399C41.9097 31.821 43.8866 31.6292 45.6844 30.8886C47.4823 30.148 49.0207 28.8917 50.1056 27.2781C51.1906 25.6646 51.7736 23.7659 51.7811 21.8215C51.8017 20.5176 51.56 19.2229 51.0705 18.0142C50.581 16.8055 49.8536 15.7075 48.9315 14.7854C48.0094 13.8633 46.9114 13.1359 45.7027 12.6464C44.494 12.1568 43.1993 11.9152 41.8954 11.9358ZM41.9525 15.8024C43.1511 15.7318 44.3431 16.023 45.3742 16.6381C46.4052 17.2533 47.2276 18.164 47.7347 19.2522C48.2419 20.3405 48.4103 21.556 48.2182 22.7411C48.0261 23.9262 47.4823 25.0263 46.6573 25.8986C45.8324 26.7709 44.7644 27.3752 43.5918 27.6332C42.4193 27.8911 41.1963 27.7907 40.0814 27.3451C38.9666 26.8995 38.0114 26.1292 37.3397 25.134C36.668 24.1389 36.3108 22.9649 36.3144 21.7643C36.2745 20.9981 36.3905 20.2318 36.6555 19.5117C36.9205 18.7917 37.329 18.133 37.8562 17.5755C38.3834 17.018 39.0183 16.5734 39.7224 16.2687C40.4266 15.9639 41.1853 15.8053 41.9525 15.8024Z" fill="#DB3236"/>
<path d="M63.4381 11.9366C61.4933 11.9423 59.5937 12.5237 57.9789 13.6075C56.364 14.6913 55.1063 16.229 54.3642 18.0267C53.6221 19.8244 53.429 21.8016 53.8091 23.7089C54.1892 25.6162 55.1255 27.3683 56.5001 28.7442C57.8746 30.12 59.6258 31.0581 61.5328 31.44C63.4397 31.822 65.4171 31.6307 67.2155 30.8904C69.0139 30.15 70.5528 28.8938 71.6382 27.28C72.7236 25.6662 73.3068 23.7671 73.3143 21.8223C73.3349 20.5193 73.0935 19.2253 72.6046 18.0173C72.1156 16.8092 71.3891 15.7117 70.468 14.7897C69.5469 13.8677 68.4501 13.1401 67.2425 12.65C66.0349 12.1599 64.7412 11.9173 63.4381 11.9366ZM63.4953 15.8033C64.6938 15.7327 65.8859 16.0238 66.9169 16.6389C67.9479 17.2541 68.7704 18.1648 69.2775 19.2531C69.7846 20.3413 69.953 21.5568 69.7609 22.7419C69.5688 23.9271 69.025 25.0271 68.2001 25.8994C67.3751 26.7717 66.3071 27.3761 65.1346 27.634C63.962 27.8919 62.739 27.7916 61.6242 27.3459C60.5093 26.9003 59.5541 26.13 58.8824 25.1349C58.2107 24.1398 57.8535 22.9658 57.8572 21.7652C57.8172 20.999 57.9332 20.2326 58.1982 19.5126C58.4633 18.7925 58.8718 18.1338 59.3989 17.5763C59.9261 17.0189 60.561 16.5743 61.2652 16.2695C61.9693 15.9647 62.728 15.8061 63.4953 15.8033Z" fill="#F4C20D"/>
<path d="M84.553 11.9456C79.2578 11.9456 75.0959 16.5837 75.0959 21.7837C75.0568 24.3248 76.0152 26.78 77.7653 28.6227C79.5155 30.4654 81.918 31.5489 84.4578 31.6408C85.4826 31.6967 86.5062 31.5092 87.4447 31.0937C88.3832 30.6782 89.2101 30.0466 89.8578 29.2504V31.1551C89.8578 34.5551 87.7911 36.5837 84.6768 36.5837C83.5907 36.5747 82.532 36.2418 81.6362 35.6276C80.7403 35.0134 80.0482 34.1459 79.6483 33.1361L75.8387 34.717C76.5755 36.4517 77.8104 37.9287 79.3871 38.9612C80.9638 39.9936 82.8113 40.5351 84.6959 40.517C89.9625 40.517 93.9721 37.2027 93.9721 30.2504V12.5361H89.8673V14.2027C89.1941 13.4687 88.3715 12.8875 87.4548 12.4981C86.5381 12.1088 85.5486 11.9204 84.553 11.9456ZM84.934 15.8027C87.534 15.8027 90.1911 18.0218 90.1911 21.8027C90.1911 25.5837 87.534 27.7742 84.8768 27.7742C84.1254 27.7551 83.3856 27.5849 82.7013 27.2738C82.0171 26.9627 81.4025 26.517 80.8941 25.9633C80.3858 25.4097 79.9941 24.7593 79.7424 24.0511C79.4907 23.3428 79.3842 22.5911 79.4292 21.8408C79.4292 18.0313 82.153 15.8027 84.934 15.8027Z" fill="#4885ED"/>
<path d="M112.362 11.917C107.372 11.917 103.172 15.8884 103.172 21.7551C103.123 23.048 103.337 24.3374 103.803 25.5446C104.268 26.7519 104.975 27.8516 105.879 28.7767C106.784 29.7017 107.868 30.4328 109.064 30.9252C110.261 31.4177 111.545 31.6611 112.839 31.6408C114.461 31.644 116.06 31.252 117.497 30.4986C118.934 29.7453 120.166 28.6533 121.086 27.317L117.677 25.0503C117.183 25.8885 116.476 26.581 115.628 27.0577C114.78 27.5345 113.821 27.7783 112.848 27.7646C111.838 27.8064 110.838 27.5448 109.977 27.0135C109.117 26.4823 108.435 25.7057 108.02 24.7837L121.229 19.3075L120.543 17.6979C119.914 16.0259 118.796 14.5817 117.336 13.5526C115.875 12.5235 114.139 11.957 112.353 11.9265L112.362 11.917ZM112.534 15.7265C113.279 15.6944 114.018 15.8753 114.664 16.2481C115.31 16.6209 115.836 17.17 116.181 17.8313L107.362 21.517C107.319 20.7965 107.418 20.0746 107.655 19.3927C107.892 18.7109 108.261 18.0827 108.742 17.5443C109.223 17.006 109.805 16.5682 110.456 16.2562C111.107 15.9442 111.813 15.7642 112.534 15.7265Z" fill="#DB3236"/>
<path d="M96.876 31.0596H101.219V2.02148H96.876V31.0596Z" fill="#3CBA54"/>
</g>
<defs>
<clipPath id="clip0_2436_828">
<rect width="121.905" height="40" fill="white" transform="translate(0.0478516 0.754883)"/>
</clipPath>
</defs>
</svg>
